<?xml version="1.0" encoding="utf-8"?>
<!-- Generator: Adobe Illustrator 25.2.3, SVG Export Plug-In . SVG Version: 6.00 Build 0)  -->
<svg version="1.1" id="Layer_1" xmlns="http://www.w3.org/2000/svg" xmlns:xlink="http://www.w3.org/1999/xlink" x="0px" y="0px"
	 viewBox="0 0 362.5 154.8" style="enable-background:new 0 0 362.5 154.8;" xml:space="preserve">
<style type="text/css">
	.st0{fill-rule:evenodd;clip-rule:evenodd;fill:#00B33C;}
</style>
<path class="st0" d="M34.4,112.9c-15.6,0-22.7,4.3-25.5,13.3L0,154.8h303.2c15.6,0,22.7-4.3,25.5-13.3l8.9-28.6H34.4z M70.9,73h-15
	c-23.4,0-6.4-49.7,13.3-49.7h23.7c3.8,0,10.5,0.7,13.8-8.7L111.8,0H79.3C61.7,0,48,6.2,38.1,16.6C21,34.4,15.2,62.2,19.3,75.5
	c3.9,12.3,14.5,20.4,31.1,20.6l12.9,0.1h15.9l3.9-11.7C86,76.2,79.5,73,70.9,73L70.9,73z M253.5,52.4l4.9-15.9h-52.3
	c-8.7,0-12.6,2.4-14.1,7.4l-4.9,15.9h52.3C248.1,59.8,252,57.4,253.5,52.4z M179.3,80.4l-4.9,15.9h52.3c8.6,0,12.6-2.4,14.1-7.4
	l4.9-15.9h-52.3C184.8,73,180.9,75.4,179.3,80.4z M265.7,16l4.9-15.9h-52.3c-8.7,0-12.6,2.4-14.1,7.4l-4.9,15.9h52.3
	C260.2,23.4,264.1,21,265.7,16L265.7,16z M186.7,19.2c-2.2-14.8-10.1-19.1-29.3-19.1h-35L102,59.8h12.9c7.7,0,11.6,0.1,15.7-10.9
	l8.5-25.6h13c11.1,0,8.6,13.9,3,27.4c-5,11.9-13.7,22.4-24.2,22.4h-21.7c-8.7,0-12.7,2.4-14.3,7.4l-5.4,15.9h15.9l15.6-0.1
	c13.8-0.1,25.1-1.1,38.3-13C173.3,70.6,189.5,38,186.7,19.2L186.7,19.2z M362.5,0h-30.3l-28.5,30.3c-3.3,3.5-6.7,7-10,11.1h-0.3
	L307.6,0h-24.7l-33.3,96.3h24.7L284.9,66l11-9.3l8.7,27.4c2.7,8.5,5.5,12.2,11.5,12.2H335l-19.4-53.8L362.5,0L362.5,0z"/>
</svg>
