<?xml version="1.0" encoding="utf-8"?>
<!-- Generator: Adobe Illustrator 25.2.3, SVG Export Plug-In . SVG Version: 6.00 Build 0)  -->
<svg version="1.1" id="DPD_Black" xmlns="http://www.w3.org/2000/svg" xmlns:xlink="http://www.w3.org/1999/xlink" x="0px" y="0px"
	 viewBox="0 0 444.9 194.8" style="enable-background:new 0 0 444.9 194.8;" xml:space="preserve">
<g>
	<path style="fill:#414042;" d="M288.8,143.3c-8.4,2.2-19.3,3.3-28.8,3.3c-24.4,0-40.6-13-40.6-36.8c0-22.5,15.1-37.1,37.1-37.1
		c4.9,0,10.1,0.6,13.3,2.2V42.3h19L288.8,143.3L288.8,143.3z M269.8,91.7c-3-1.4-7-2.2-11.7-2.2c-11.6,0-19.3,7.1-19.3,19.7
		c0,13.5,8.4,21.1,21.9,21.1c2.4,0,6-0.2,9.2-0.8V91.7z M444.9,143.3c-8.4,2.2-19.3,3.3-28.9,3.3c-24.4,0-40.6-13-40.6-36.8
		c0-22.5,15.1-37.1,37.1-37.1c4.9,0,10.1,0.6,13.3,2.2V42.3h19L444.9,143.3L444.9,143.3z M425.8,91.7c-3-1.4-7-2.2-11.7-2.2
		c-11.6,0-19.3,7.1-19.3,19.7c0,13.5,8.4,21.1,21.9,21.1c2.4,0,6-0.2,9.2-0.8V91.7z M318.7,91.6c3.2-1.3,7.6-1.7,11.4-1.7
		c11.7,0,19.8,6.8,19.8,19c0,14.4-9,20.9-20.9,21.1v16.6c0.3,0,0.6,0,1,0c24.6,0,39.3-13.8,39.3-38.4c0-22.4-15.7-35.5-38.8-35.5
		c-11.7,0-23.3,2.7-30.9,5.9v95h19.2L318.7,91.6L318.7,91.6z"/>

	<path style="fill:#DC0032;" d="M116.1,86.9c-0.8,0.5-2,0.4-2.8-0.1l-4.5-2.7c-0.4-0.2-0.7-0.6-1-1c0,0,0-0.1,0-0.1
		c-0.3-0.5-0.5-1-0.5-1.4l-0.1-5.3c0-0.9,0.6-2,1.3-2.4l54.4-31.7L86.6,0.7C85.8,0.2,84.7,0,83.6,0c-1.1,0-2.2,0.2-3.1,0.7L4.2,42.3
		L89.7,92c0.8,0.4,1.4,1.5,1.4,2.4V167c0,0.9-0.7,2-1.4,2.4l-4.6,2.6c-0.4,0.2-0.9,0.3-1.4,0.3c0,0-0.1,0-0.1,0
		c-0.6,0-1.1-0.1-1.5-0.3l-4.6-2.6c-0.8-0.4-1.4-1.5-1.4-2.4l0-64.7c0-0.5-0.4-1.1-0.8-1.3L0,57.2V143c0,1.9,1.4,4.3,3,5.3L80.6,194
		c0.8,0.5,1.9,0.7,3,0.7c1.1,0,2.2-0.2,3-0.7l77.6-45.7c1.7-1,3-3.3,3-5.3V57.2L116.1,86.9z"/>
</g>
</svg>
