<svg data-v-4a6eb7fc="" width="280" height="129" viewBox="0 0 280 129" fill="none" xmlns="http://www.w3.org/2000/svg" class="history-logo"><path data-v-4a6eb7fc="" fill-rule="evenodd" clip-rule="evenodd" d="M180.596 99.7095H194.709V67.2885C212.81 67.2885 210.05 70.4131 210.05 99.7095H224.162C224.162 90.3188 225.354 73.0388 222.584 66.4153C221.492 63.8018 220.468 62.8494 219.253 60.56C219.348 60.4504 219.499 60.1386 219.54 60.2344C219.61 60.4002 221.508 58.094 222.409 55.7543C225.307 48.2256 224.162 43.5325 224.162 33.0343C224.162 26.2799 220.275 20.1173 215.374 17.3273C211.745 15.2615 210.224 14.0703 203.914 14.0703H180.597V99.7095H180.596ZM201.459 54.443H194.709V26.9158C209.243 26.9158 210.05 27.7099 210.05 44.0437C210.05 50.0678 207.489 54.443 201.459 54.443Z" fill="#191919"></path><path data-v-4a6eb7fc="" fill-rule="evenodd" clip-rule="evenodd" d="M0.1958 34.8646C0.1958 41.7955 0.772616 44.0758 3.87033 50.1654C9.47215 61.1763 18.0115 61.5992 24.2649 65.9241C26.0716 67.1731 25.2613 66.306 26.4806 67.9976C30.358 73.3768 31.2141 87.4728 22.2857 87.4728C12.959 87.4728 14.9229 77.9497 14.9229 69.1203C-2.83172 69.1203 0.1958 66.4657 0.1958 79.5196C0.1958 90.392 9.53929 99.7067 20.4454 99.7067C29.6073 99.7067 36.2467 97.1906 40.698 89.922C44.3679 83.9282 44.4107 72.9113 41.9356 67.272C32.8576 46.5768 14.9229 51.7247 14.9229 39.7585V33.6415C14.9229 23.3289 29.035 23.3289 29.035 33.6415V44.0408H43.7621C43.7621 31.9164 43.756 21.7483 32.5142 16.1045C25.3636 12.5143 13.342 12.89 6.17911 20.0308C2.21923 23.977 0.1958 28.4662 0.1958 34.8646Z" fill="#191919"></path><path data-v-4a6eb7fc="" fill-rule="evenodd" clip-rule="evenodd" d="M56.0335 15.9026C56.0335 28.2248 55.0798 92.9984 56.647 99.7072H70.7606V67.2861C80.951 67.2861 87.5966 68.6857 94.8541 61.3319C101.835 54.258 100.213 45.0849 100.213 33.642C100.213 22.4653 91.79 14.0664 80.5772 14.0664H57.8738C56.4608 14.0679 56.0335 14.4924 56.0335 15.9026ZM77.51 54.4406H70.7606V26.9134C88.0529 26.9134 85.4877 28.2978 85.4877 48.3236C85.4862 52.2956 81.5461 54.4406 77.51 54.4406Z" fill="#191919"></path><path data-v-4a6eb7fc="" fill-rule="evenodd" clip-rule="evenodd" d="M104.509 99.7093H118.623C118.957 95.7084 120.084 91.9722 120.475 87.486L132.736 0H116.781L103.424 94.96C102.926 97.6739 101.97 99.7093 104.509 99.7093Z" fill="#B4DC14"></path><path data-v-4a6eb7fc="" fill-rule="evenodd" clip-rule="evenodd" d="M153.598 99.7093H169.552L155.44 0H139.484L148.324 62.1464C149.084 66.371 149.31 70.3947 149.977 74.569L153.598 99.7093Z" fill="#FFF000"></path><path data-v-4a6eb7fc="" fill-rule="evenodd" clip-rule="evenodd" d="M251.16 53.2175C253.335 57.3158 257.374 73.2996 259.391 79.266C259.887 80.734 259.928 80.3872 260.372 81.9586L265.886 99.7072H279.998C279.764 96.9035 265.886 53.8869 265.886 52.6044C265.886 51.0482 271.874 36.9233 272.878 33.2708C273.487 31.0513 273.883 30.7805 274.678 28.9489L279.999 14.0664H265.887L258.448 33.5659C256.458 39.6403 252.579 47.1477 251.16 53.2175Z" fill="#191919"></path><path data-v-4a6eb7fc="" fill-rule="evenodd" clip-rule="evenodd" d="M235.209 99.7111H247.481C248.895 99.7111 249.321 99.2851 249.321 97.8764V14.0703H235.209V99.7111Z" fill="#191919"></path><path data-v-4a6eb7fc="" d="M90.7285 112.059H92.8511V125.916H100.489V127.696H90.7285V112.059Z" fill="#1B1918"></path><path data-v-4a6eb7fc="" d="M108.315 111.773C110.514 111.773 112.27 112.51 113.587 113.979C114.904 115.45 115.563 117.42 115.563 119.891C115.563 122.357 114.904 124.325 113.587 125.795C112.27 127.264 110.514 127.998 108.315 127.998C106.108 127.998 104.344 127.264 103.024 125.799C101.704 124.333 101.045 122.363 101.045 119.891C101.045 117.42 101.704 115.45 103.024 113.979C104.346 112.508 106.108 111.773 108.315 111.773ZM108.315 113.491C106.772 113.491 105.548 114.064 104.64 115.21C103.734 116.354 103.28 117.915 103.28 119.891C103.28 121.861 103.734 123.419 104.64 124.564C105.548 125.708 106.772 126.28 108.315 126.28C109.854 126.28 111.075 125.708 111.974 124.564C112.876 123.419 113.326 121.861 113.326 119.891C113.326 117.915 112.876 116.355 111.974 115.21C111.075 114.064 109.856 113.491 108.315 113.491Z" fill="#1B1918"></path><path data-v-4a6eb7fc="" d="M129.577 125.463V121.266H126.11V119.526H131.677V126.241C130.858 126.819 129.954 127.257 128.965 127.555C127.978 127.852 126.924 127.999 125.804 127.999C123.353 127.999 121.435 127.286 120.052 125.857C118.67 124.43 117.979 122.44 117.979 119.891C117.979 117.337 118.67 115.345 120.052 113.917C121.435 112.488 123.353 111.773 125.804 111.773C126.828 111.773 127.8 111.9 128.72 112.151C129.641 112.403 130.491 112.773 131.268 113.261V115.514C130.482 114.851 129.649 114.352 128.767 114.017C127.885 113.681 126.956 113.514 125.982 113.514C124.064 113.514 122.624 114.048 121.659 115.116C120.696 116.184 120.214 117.775 120.214 119.891C120.214 122.001 120.696 123.589 121.659 124.657C122.622 125.725 124.063 126.259 125.982 126.259C126.731 126.259 127.401 126.195 127.99 126.066C128.581 125.938 129.109 125.737 129.577 125.463Z" fill="#1B1918"></path><path data-v-4a6eb7fc="" d="M137.691 112.059H135.568V127.697H137.691V112.059Z" fill="#1B1918"></path><path data-v-4a6eb7fc="" d="M151.316 112.571V114.634C150.511 114.251 149.751 113.965 149.036 113.776C148.322 113.588 147.632 113.493 146.967 113.493C145.811 113.493 144.919 113.717 144.291 114.164C143.666 114.611 143.352 115.247 143.352 116.07C143.352 116.761 143.559 117.284 143.976 117.637C144.394 117.989 145.183 118.273 146.345 118.491L147.629 118.752C149.21 119.054 150.377 119.583 151.131 120.341C151.885 121.098 152.262 122.113 152.262 123.383C152.262 124.898 151.752 126.047 150.733 126.83C149.713 127.612 148.219 128.002 146.251 128.002C145.508 128.002 144.719 127.918 143.881 127.749C143.045 127.582 142.178 127.334 141.282 127.005V124.828C142.143 125.31 142.987 125.673 143.814 125.917C144.641 126.162 145.453 126.284 146.251 126.284C147.464 126.284 148.399 126.048 149.057 125.574C149.715 125.097 150.044 124.421 150.044 123.541C150.044 122.773 149.806 122.172 149.333 121.74C148.862 121.308 148.087 120.982 147.008 120.765L145.715 120.512C144.131 120.199 142.987 119.706 142.28 119.037C141.572 118.366 141.22 117.435 141.22 116.241C141.22 114.858 141.708 113.769 142.683 112.973C143.661 112.176 145.009 111.777 146.725 111.777C147.459 111.777 148.209 111.844 148.972 111.977C149.736 112.109 150.517 112.307 151.316 112.571Z" fill="#1B1918"></path><path data-v-4a6eb7fc="" d="M153.396 112.059H166.665V113.842H161.095V127.696H158.965V113.842H153.396V112.059Z" fill="#1B1918"></path><path data-v-4a6eb7fc="" d="M170.847 112.059H168.725V127.697H170.847V112.059Z" fill="#1B1918"></path><path data-v-4a6eb7fc="" d="M186.815 113.26V115.492C186.099 114.829 185.338 114.331 184.529 114.004C183.722 113.676 182.862 113.511 181.951 113.511C180.158 113.511 178.785 114.058 177.831 115.151C176.879 116.244 176.403 117.823 176.403 119.888C176.403 121.948 176.879 123.526 177.831 124.618C178.785 125.71 180.158 126.256 181.951 126.256C182.862 126.256 183.722 126.092 184.529 125.764C185.338 125.435 186.101 124.941 186.815 124.279V126.486C186.072 126.99 185.286 127.369 184.457 127.62C183.627 127.871 182.75 127.995 181.825 127.995C179.45 127.995 177.58 127.271 176.214 125.823C174.848 124.373 174.166 122.394 174.166 119.887C174.166 117.374 174.848 115.393 176.214 113.945C177.58 112.495 179.449 111.77 181.825 111.77C182.762 111.77 183.647 111.894 184.477 112.142C185.307 112.393 186.087 112.764 186.815 113.26Z" fill="#1B1918"></path><path data-v-4a6eb7fc="" d="M199.515 112.571V114.634C198.711 114.251 197.951 113.965 197.235 113.776C196.521 113.588 195.832 113.493 195.166 113.493C194.011 113.493 193.118 113.717 192.491 114.164C191.864 114.611 191.551 115.247 191.551 116.07C191.551 116.761 191.759 117.284 192.175 117.637C192.594 117.989 193.382 118.273 194.545 118.491L195.829 118.752C197.409 119.054 198.577 119.583 199.331 120.341C200.084 121.098 200.461 122.113 200.461 123.383C200.461 124.898 199.952 126.047 198.932 126.83C197.913 127.612 196.419 128.002 194.449 128.002C193.706 128.002 192.917 127.918 192.079 127.749C191.243 127.582 190.376 127.334 189.481 127.005V124.828C190.341 125.31 191.187 125.673 192.012 125.917C192.838 126.162 193.651 126.284 194.449 126.284C195.662 126.284 196.598 126.048 197.255 125.574C197.913 125.097 198.243 124.421 198.243 123.541C198.243 122.773 198.005 122.172 197.532 121.74C197.06 121.308 196.285 120.982 195.206 120.765L193.913 120.512C192.33 120.199 191.185 119.706 190.479 119.037C189.77 118.366 189.418 117.435 189.418 116.241C189.418 114.858 189.905 113.769 190.881 112.973C191.86 112.176 193.207 111.777 194.924 111.777C195.658 111.777 196.407 111.844 197.17 111.977C197.936 112.109 198.717 112.307 199.515 112.571Z" fill="#1B1918"></path></svg>
