<svg height="512" width="512" xmlns="http://www.w3.org/2000/svg"><path d="M441.477 59.021H315.97V15c0-8.284-6.716-15-15-15h-89.94c-8.284 0-15 6.716-15 15v44.021H70.523c-8.284 0-15 6.716-15 15v60.222c0 8.284 6.716 15 15 15h4.138L102.662 498.2c.625 7.794 7.133 13.8 14.952 13.8h276.772c7.819 0 14.327-6.006 14.952-13.8l28.001-348.957h4.138c8.284 0 15-6.716 15-15V74.021c0-8.284-6.716-15-15-15zM226.03 30h59.939v29.021H226.03zM85.523 89.021h340.954v30.222H89.742a15.056 15.056 0 00-2.442-.023c-.061.005-.118.018-.178.023h-1.598V89.021zM380.542 482H131.458l-26.701-332.757h302.485z"/><path d="M316 452c8.284 0 15-6.716 15-15V193.243c0-8.284-6.716-15-15-15s-15 6.716-15 15V437c0 8.284 6.716 15 15 15zM196 452c8.284 0 15-6.716 15-15V193.243c0-8.284-6.716-15-15-15s-15 6.716-15 15V437c0 8.284 6.716 15 15 15zM256 452c8.284 0 15-6.716 15-15V193.243c0-8.284-6.716-15-15-15s-15 6.716-15 15V437c0 8.284 6.716 15 15 15z"/></svg>