<svg data-name="Слой 1" xmlns="http://www.w3.org/2000/svg" viewBox="0 0 19.5 21.66"><path d="M19.13 5.42a2.71 2.71 0 00-1-1l-7-4a2.76 2.76 0 00-2.75 0l-7 4a2.74 2.74 0 00-1 1 2.75 2.75 0 00-.36 1.35v8.09a2.76 2.76 0 001.36 2.37l7 4a2.67 2.67 0 001.34.36h.06a2.73 2.73 0 001.35-.36l7-4a2.77 2.77 0 001.37-2.38V6.78a2.7 2.7 0 00-.37-1.36zm-10-3.76a1.23 1.23 0 01.62-.17 1.29 1.29 0 01.63.17l6.87 4-3 1.73-7.5-4.36zm.62 8.3l-7.5-4.33 3-1.73 7.5 4.33zm-7.62 6a1.25 1.25 0 01-.63-1.08V6.93l7.5 4.3v8.66zm15.25 0l-6.88 4v-8.73l3-1.73v2.16a.75.75 0 001.5 0v-3l3-1.74v7.94a1.26 1.26 0 01-.62 1.09z"/><path class="cls-1" d="M7.17 15.23l-3-1.76a.75.75 0 10-.75 1.3l3 1.76a.86.86 0 00.37.1.76.76 0 00.65-.38.74.74 0 00-.27-1.02z"/></svg>