<svg data-name="Слой 1" xmlns="http://www.w3.org/2000/svg" viewBox="0 0 19.5 20.5"><path d="M16.75 2H14.5V.75a.75.75 0 00-1.5 0V2H6.5V.75a.75.75 0 00-1.5 0V2H2.75A2.75 2.75 0 000 4.75v13a2.75 2.75 0 002.75 2.75h14a2.75 2.75 0 002.75-2.75v-13A2.75 2.75 0 0016.75 2zM7.5 13V8.5H12V13zm4.5 1.5V19H7.5v-4.5zm-10.5-6H6V13H1.5zm12 0H18V13h-4.5zm-10.75-5H5v1.25a.75.75 0 001.5 0V3.5H13v1.25a.75.75 0 001.5 0V3.5h2.25A1.25 1.25 0 0118 4.75V7H1.5V4.75A1.25 1.25 0 012.75 3.5zM1.5 17.75V14.5H6V19H2.75a1.25 1.25 0 01-1.25-1.25zM16.75 19H13.5v-4.5H18v3.25A1.25 1.25 0 0116.75 19z"/></svg>