<svg data-name="Слой 1" xmlns="http://www.w3.org/2000/svg" viewBox="0 0 19.5 19.68"><path d="M17.75 4.81H14.5V2.75A2.75 2.75 0 0011.75 0h-4A2.75 2.75 0 005 2.75v2.06H1.75A1.76 1.76 0 000 6.59v7.5a5.6 5.6 0 005.59 5.59h8.33a5.59 5.59 0 005.58-5.59v-7.5a1.75 1.75 0 00-1.75-1.78zM6.5 2.75A1.25 1.25 0 017.75 1.5h4A1.25 1.25 0 0113 2.75v2.06H6.5zM18 14.09a4.09 4.09 0 01-4.08 4.09H5.59a4.09 4.09 0 01-4.09-4.09v-7.5a.26.26 0 01.25-.25H5v2.44a.75.75 0 001.5 0V6.31H13v2.44a.75.75 0 001.5 0V6.31h3.25a.25.25 0 01.25.25z"/></svg>