<svg xmlns="http://www.w3.org/2000/svg" viewBox="0 0 88 33"><defs><style>.cls-2{fill:#c53c32}</style></defs><g id="Слой_1" data-name="Слой 1"><g id="РЎР_РѕР__1" data-name="РЎР»РѕР№_1" style="isolation:isolate"><path class="cls-2" d="M11.71 11.33h1.51c2.52 0 6 .57 6 5.15 0 4.4-3.39 5.25-6 5.25h-1.51a.29.29 0 01-.31-.25V11.6a.29.29 0 01.31-.27zm1.91 8.34A3 3 0 0017 16.48c0-2.18-1.42-3.15-3.37-3.12zm8.7-8.34h6.52c.19 0 .32.11.32.25v1.72a.3.3 0 01-.32.25h-4.57v1.85h3.57c.2 0 .3.12.3.25v1.73c0 .13-.1.25-.3.25h-3.57v1.86h4.59a.3.3 0 01.33.25v1.73a.31.31 0 01-.33.25h-6.54a.28.28 0 01-.3-.25v-9.89a.27.27 0 01.3-.25zm10.43 0h1.67a.37.37 0 01.25.09l4.15 6.25v-6.11a.28.28 0 01.3-.25h1.61a.28.28 0 01.31.25v9.94a.29.29 0 01-.31.26H39.2a.43.43 0 01-.27-.11l-4.21-6.14v6a.31.31 0 01-.31.26h-1.66a.27.27 0 01-.29-.26v-9.95a.25.25 0 01.29-.25zm11.88 0h1.63a.27.27 0 01.3.25v9.92a.27.27 0 01-.3.25h-1.63a.29.29 0 01-.31-.25v-9.94a.28.28 0 01.31-.25zm8.51 6.19a4 4 0 01-1.57-.34 3 3 0 01-1.74-2.77 3.11 3.11 0 013.31-3.09c1.81 0 3.25 1 3.27 2.83a.28.28 0 01-.31.25h-1.58a.3.3 0 01-.32-.25c0-.6-.51-.83-1.06-.83a1 1 0 00-1.09 1.09 1.24 1.24 0 001.09 1.26 3.94 3.94 0 011.55.34 3 3 0 01-1.55 5.76c-1.83-.05-3.28-.89-3.31-2.84 0-.15.12-.24.31-.24h1.61c.14 0 .3.09.3.24 0 .63.52.85 1.09.85a1 1 0 001-1 1.36 1.36 0 00-1-1.28zm10.21-6.19A3.67 3.67 0 0167 14.94a3.68 3.68 0 01-7.36 0 3.68 3.68 0 013.71-3.63zm0 5.23a1.55 1.55 0 001.56-1.6 1.66 1.66 0 00-1.56-1.72 1.68 1.68 0 00-1.59 1.72 1.57 1.57 0 001.59 1.58zm-2.76 3h5.49a.3.3 0 01.32.26v1.68a.3.3 0 01-.32.26h-5.49a.29.29 0 01-.31-.26v-1.74a.29.29 0 01.31-.26zm8.75-8.19h1.72a.32.32 0 01.29.16c.64 1.81 1.19 3.27 1.82 5.08.6-1.68 1.19-3.38 1.79-5.08a.3.3 0 01.28-.16H77c.24 0 .35.16.28.35l-3.79 10a.35.35 0 01-.56 0l-3.81-10c-.12-.24 0-.41.22-.41z" id="_460947947792" data-name="460947947792"/></g></g><path class="cls-2" d="M85 0H0v33h88V0zm1 31H2V2h84z" id="Слой_2" data-name="Слой 2"/></svg>