<svg data-name="Слой 1" xmlns="http://www.w3.org/2000/svg" viewBox="0 0 19.5 17.09"><path d="M17.73 0h-2.08a1.76 1.76 0 00-1.72 1.43L13.4.86a2.75 2.75 0 00-2-.88H4.28a2.77 2.77 0 00-2.64 2L.13 7.34a2.77 2.77 0 00.36 2.29l.39.57a2.74 2.74 0 002.25 1.23h2.75v2.93a2.75 2.75 0 00.63 1.76 2.68 2.68 0 002.08 1 2.71 2.71 0 002.1-1.06l3.68-4.8a1.76 1.76 0 001.23.5h2.13A1.76 1.76 0 0019.5 10V1.77A1.77 1.77 0 0017.73 0zM9.55 15.13a1.23 1.23 0 01-.93.47 1.21 1.21 0 01-1-.44 1.28 1.28 0 01-.29-.81v-3.68a.76.76 0 00-.75-.75H3.13a1.26 1.26 0 01-1-.55l-.38-.58a1.2 1.2 0 01-.16-1l1.54-5.36a1.27 1.27 0 011.2-.91h7.11a1.24 1.24 0 01.91.4l1.6 1.72v5.79zM18 9.98a.26.26 0 01-.27.26h-2.08a.25.25 0 01-.25-.25V1.75a.25.25 0 01.25-.25h2.08a.27.27 0 01.27.27z"/></svg>