<svg data-name="Слой 1" xmlns="http://www.w3.org/2000/svg" viewBox="0 0 19.5 19.5"><path d="M9.75 0a9.74 9.74 0 00-6.12 17.33 8 8 0 001.18.82 9.73 9.73 0 009.87 0 10.91 10.91 0 001.19-.82A9.75 9.75 0 009.75 0zm0 18a8.2 8.2 0 01-4.44-1.25c.57-1.26 2.37-2.2 4.44-2.2s3.86.94 4.44 2.2A8.2 8.2 0 019.75 18zm5.63-2.25A6.46 6.46 0 009.75 13a6.47 6.47 0 00-5.64 2.75 8.26 8.26 0 1111.27 0z"/><path class="cls-1" d="M9.75 4a3.75 3.75 0 103.75 3.75A3.75 3.75 0 009.75 4zm0 6A2.25 2.25 0 1112 7.75 2.25 2.25 0 019.75 10z"/></svg>