<svg data-name="Слой 1" xmlns="http://www.w3.org/2000/svg" viewBox="0 0 19.5 17.09"><path d="M19.03 7.43l-.38-.57a2.76 2.76 0 00-2.29-1.22h-2.74V2.75a2.81 2.81 0 00-.63-1.76 2.65 2.65 0 00-2.14-1 2.69 2.69 0 00-2.09 1.06L5.07 5.86a1.76 1.76 0 00-1.23-.51H1.76A1.77 1.77 0 000 7.12v8.21a1.77 1.77 0 001.76 1.77h2.08a1.75 1.75 0 001.72-1.45l.53.57a2.79 2.79 0 002 .88h7.1a2.75 2.75 0 002.64-2l1.54-5.34a2.7 2.7 0 00-.34-2.33zm-14.9 7.92a.25.25 0 01-.25.25H1.76a.27.27 0 01-.26-.27V7.12a.27.27 0 01.26-.27h2.08a.25.25 0 01.25.25zm13.86-6l-1.54 5.34a1.26 1.26 0 01-1.2.91H8.13a1.28 1.28 0 01-.92-.4l-1.6-1.72V7.64l4.36-5.67a1.2 1.2 0 01.93-.47 1.2 1.2 0 01.93.44 1.31 1.31 0 01.29.81v3.68a.75.75 0 00.75.75h3.49a1.26 1.26 0 011 .55l.39.58a1.26 1.26 0 01.2 1.04z"/></svg>