<svg id="Слой_1" data-name="Слой 1" xmlns="http://www.w3.org/2000/svg" viewBox="0 0 151.71 27.83"><defs><style>.cls-1{fill:#1b1918;fill-rule:evenodd}.cls-2{fill:none;stroke:#1b1918;stroke-width:.22px}</style></defs><path class="cls-1" d="M170 89h-7.37L172 75l-9.61-13.7h5.93l3.72 5 2.6 3.73a4.28 4.28 0 01.35.49c1.14-1.82 2.12-3.31 2.91-4.48l3.35-4.79h7.22l-9.71 14.51L188.21 89h-6.4l-2.93-4c-1.53-2.13-2.56-3.65-3.11-4.58a41.83 41.83 0 01-2.84 4.45zm0 0" transform="translate(-37 -61.24)"/><path class="cls-2" d="M170 89h-7.37L172 75l-9.61-13.7h5.93l3.72 5 2.6 3.73a4.28 4.28 0 01.35.49c1.14-1.82 2.12-3.31 2.91-4.48l3.35-4.79h7.22l-9.71 14.51L188.21 89h-6.4l-2.93-4c-1.53-2.13-2.56-3.65-3.11-4.58a41.83 41.83 0 01-2.84 4.45zm0 0" transform="translate(-37 -61.24)"/><path class="cls-1" d="M129.7 89l.1-27.62h20.44V66h-14.79l-.07 6.25h14.33v4.63h-14.39l-.09 7.48h16V89zm0 0" transform="translate(-37 -61.24)"/><path class="cls-2" d="M129.7 89l.1-27.62h20.44V66h-14.79l-.07 6.25h14.33v4.63h-14.39l-.09 7.48h16V89zm0 0" transform="translate(-37 -61.24)"/><path class="cls-1" d="M108.1 89h-5.4l-5.51-23.11L97.3 89h-5.13l.41-27.62h8.1l4.55 19 5-19h8.18l.32 27.62h-5.15l.34-22.91zm0 0" transform="translate(-37 -61.24)"/><path class="cls-2" d="M108.1 89h-5.4l-5.51-23.11L97.3 89h-5.13l.41-27.62h8.1l4.55 19 5-19h8.18l.32 27.62h-5.15l.34-22.91zm0 0" transform="translate(-37 -61.24)"/><path class="cls-1" d="M38.17 27.73L38.26.11h5.67l-.09 27.62h-5.67z"/><path class="cls-2" d="M75.17 89l.09-27.62h5.67L80.84 89zm0 0" transform="translate(-37 -61.24)"/><path class="cls-1" d="M37.21 89l-.1-27.62h5.67v11.74l10.3-11.78h7.59L50.62 72.18 63.28 89h-6.44l-9.59-13.19-4.4 4.73v8.42zm0 0" transform="translate(-37 -61.24)"/><path class="cls-2" d="M37.21 89l-.1-27.62h5.67v11.74l10.3-11.78h7.59L50.62 72.18 63.28 89h-6.44l-9.59-13.19-4.4 4.73v8.42zm0 0" transform="translate(-37 -61.24)"/></svg>