<svg data-name="Слой 1" xmlns="http://www.w3.org/2000/svg" viewBox="0 0 19.5 15.5"><path d="M19.29 6.92C17.42 3.48 13.75 0 9.75 0S2.07 3.48.21 6.92a1.73 1.73 0 000 1.65c1.86 3.45 5.53 6.93 9.54 6.93s7.67-3.48 9.54-6.93a1.73 1.73 0 000-1.65zm-1.32.94c-2 3.61-5.34 6.14-8.22 6.14s-6.27-2.53-8.23-6.14a.28.28 0 010-.22c2-3.62 5.34-6.14 8.23-6.14s6.26 2.52 8.22 6.14a.22.22 0 010 .22z"/><path class="cls-1" d="M9.75 3.85a3.9 3.9 0 103.9 3.9 3.91 3.91 0 00-3.9-3.9zm0 6.3a2.4 2.4 0 112.4-2.4 2.4 2.4 0 01-2.4 2.4z"/></svg>