<svg id="Слой_1" data-name="Слой 1" xmlns="http://www.w3.org/2000/svg" viewBox="0 0 19.5 15.5"><defs><style>.cls-1{fill:#333232}</style></defs><path class="cls-1" d="M26.16 15.33c-1.87-3.44-5.54-6.92-9.54-6.92s-7.68 3.48-9.54 6.92a1.73 1.73 0 000 1.65c1.86 3.45 5.53 6.93 9.54 6.93s7.67-3.48 9.54-6.93a1.73 1.73 0 000-1.65zm-1.32.94c-2 3.61-5.34 6.14-8.22 6.14s-6.27-2.53-8.23-6.14a.28.28 0 010-.22c2-3.62 5.34-6.14 8.23-6.14s6.26 2.52 8.22 6.14a.22.22 0 010 .22z" transform="translate(-6.87 -8.41)"/><path class="cls-1" d="M16.62 12.26a3.9 3.9 0 103.9 3.9 3.91 3.91 0 00-3.9-3.9zm0 6.3a2.4 2.4 0 112.4-2.4 2.4 2.4 0 01-2.4 2.4z" transform="translate(-6.87 -8.41)"/></svg>