<svg data-name="Слой 1" xmlns="http://www.w3.org/2000/svg" viewBox="0 0 19.5 15.5"><path d="M19.29 6.92a16.53 16.53 0 00-1.89-2.74.75.75 0 00-1.06-.08.74.74 0 00-.08 1.05 14.51 14.51 0 011.71 2.49.22.22 0 010 .22c-2 3.61-5.34 6.14-8.22 6.14a6.17 6.17 0 01-2.24-.41.75.75 0 00-.54 1.4 7.77 7.77 0 002.78.55c4 0 7.67-3.48 9.54-6.93a1.71 1.71 0 000-1.69z"/><path class="cls-1" d="M17.28.22a.74.74 0 00-1.06 0l-1.51 1.5a8.78 8.78 0 00-5-1.72c-4 0-7.68 3.48-9.54 6.92a1.73 1.73 0 000 1.65 15.55 15.55 0 003.39 4.26l-1.34 1.39a.74.74 0 000 1.06.75.75 0 00.53.22.79.79 0 00.53-.22l14-14a.75.75 0 000-1.06zM1.52 7.86a.28.28 0 010-.22c2-3.62 5.34-6.14 8.23-6.14a7.19 7.19 0 013.88 1.3l-1.71 1.72a4 4 0 00-4.93.47 3.9 3.9 0 00-.48 4.93l-1.84 1.85a14.19 14.19 0 01-3.15-3.91zm6.09 1a2.4 2.4 0 01.44-2.77 2.46 2.46 0 012.76-.5z"/></svg>