<svg id="Слой_1" data-name="Слой 1" xmlns="http://www.w3.org/2000/svg" viewBox="0 0 11.89 15"><defs><style>.cls-1{fill:#333232}</style></defs><path class="cls-1" d="M16 11.61a2.84 2.84 0 102.83 2.83A2.83 2.83 0 0016 11.61zm0 4.67a1.84 1.84 0 111.83-1.84A1.83 1.83 0 0116 16.28z" transform="translate(-10.06 -8.5)"/><path class="cls-1" d="M16 8.5a6 6 0 00-5.94 5.94c0 4.27 5.39 8.76 5.62 9h.13a.47.47 0 00.38 0h.08c.23-.19 5.62-4.68 5.62-9A6 6 0 0016 8.5zm0 13.84c-1.13-1-4.94-4.64-4.94-7.9a4.94 4.94 0 019.88 0c0 3.26-3.81 6.89-4.94 7.9z" transform="translate(-10.06 -8.5)"/></svg>